# xmcd
#
# Track frame offsets: 
#        182
#        20285
#        43782
#        65445
#        87320
#        94000
#        120597
#        138760
#        159020
#        180445
#        198915
#        203135
#        226395
#        246345
#
# Disc length: 3346 seconds
#
# Revision: 2
# Processed by: cddbd v1.5.2PL0 Copyright (c) Steve Scherf et al.
# Submitted via: ExactAudioCopyFreeDBPlugin 1.0
#
DISCID=ac0d100e
DTITLE=Brandy - Brandy
DYEAR=1994
DGENRE=R&B
TTITLE0=Movin' On
TTITLE1=Baby
TTITLE2=Best Friends
TTITLE3=I Wanna Be Down
TTITLE4=I Dedicate (Part 1)
TTITLE5=Brokenhearted
TTITLE6=I'm Yours
TTITLE7=Sunny Day
TTITLE8=As Long As You're Here
TTITLE9=Always On My Mind
TTITLE10=I Dedicate (Part 2)
TTITLE11=Love Is On My Side
TTITLE12=Give Me You
TTITLE13=I Dedicate (Part 3)
EXTD=
EXTT0=
EXTT1=
EXTT2=
EXTT3=
EXTT4=
EXTT5=
EXTT6=
EXTT7=
EXTT8=
EXTT9=
EXTT10=
EXTT11=
EXTT12=
EXTT13=
PLAYORDER=
